<mxfile host="app.diagrams.net" modified="2022-11-28T10:26:13.528Z" agent="5.0 (Windows NT 10.0; Win64; x64) AppleWebKit/537.36 (KHTML, like Gecko) Chrome/107.0.0.0 Safari/537.36" etag="L-7V-kv7Lz_mWPRbbHqr" version="20.6.0" type="github">
  <diagram id="C5RBs43oDa-KdzZeNtuy" name="Page-1">
    <mxGraphModel dx="677" dy="359" grid="1" gridSize="10" guides="1" tooltips="1" connect="1" arrows="1" fold="1" page="1" pageScale="1" pageWidth="827" pageHeight="1169" math="0" shadow="0">
      <root>
        <mxCell id="WIyWlLk6GJQsqaUBKTNV-0" />
        <mxCell id="WIyWlLk6GJQsqaUBKTNV-1" parent="WIyWlLk6GJQsqaUBKTNV-0" />
        <mxCell id="zkfFHV4jXpPFQw0GAbJ--6" value="Person" style="swimlane;fontStyle=0;align=center;verticalAlign=top;childLayout=stackLayout;horizontal=1;startSize=26;horizontalStack=0;resizeParent=1;resizeLast=0;collapsible=1;marginBottom=0;rounded=0;shadow=0;strokeWidth=1;" parent="WIyWlLk6GJQsqaUBKTNV-1" vertex="1">
          <mxGeometry x="120" y="390" width="200" height="110" as="geometry">
            <mxRectangle x="130" y="380" width="160" height="26" as="alternateBounds" />
          </mxGeometry>
        </mxCell>
        <mxCell id="zkfFHV4jXpPFQw0GAbJ--8" value="+ name: string&#xa;+ age: number" style="text;align=left;verticalAlign=top;spacingLeft=4;spacingRight=4;overflow=hidden;rotatable=0;points=[[0,0.5],[1,0.5]];portConstraint=eastwest;rounded=0;shadow=0;html=0;fontSize=12;" parent="zkfFHV4jXpPFQw0GAbJ--6" vertex="1">
          <mxGeometry y="26" width="200" height="44" as="geometry" />
        </mxCell>
        <mxCell id="zkfFHV4jXpPFQw0GAbJ--9" value="" style="line;html=1;strokeWidth=1;align=left;verticalAlign=middle;spacingTop=-1;spacingLeft=3;spacingRight=3;rotatable=0;labelPosition=right;points=[];portConstraint=eastwest;" parent="zkfFHV4jXpPFQw0GAbJ--6" vertex="1">
          <mxGeometry y="70" width="200" height="8" as="geometry" />
        </mxCell>
        <mxCell id="zkfFHV4jXpPFQw0GAbJ--11" value="+ sayHi(otherName:string):void" style="text;align=left;verticalAlign=top;spacingLeft=4;spacingRight=4;overflow=hidden;rotatable=0;points=[[0,0.5],[1,0.5]];portConstraint=eastwest;fontSize=12;" parent="zkfFHV4jXpPFQw0GAbJ--6" vertex="1">
          <mxGeometry y="78" width="200" height="26" as="geometry" />
        </mxCell>
        <mxCell id="ogPEok4I9FEMf835OHZS-0" value="" style="shape=image;verticalLabelPosition=bottom;labelBackgroundColor=default;verticalAlign=top;aspect=fixed;imageAspect=0;image=data:image/png,iVBORw0KGgoAAAANSUhEUgAAAcgAAAG5CAYAAAAK36SOAAAgAElEQVR4nOzde1hTV74//jeQALmRAFFCuKpQBUHRYr1ApYqttvVaqWeOyCn21F60w0/p2Pna05niqdM+U6e044yOrT3VDtU5jyPVdmxHZ4TWHlDbMpYqoh1QFDAEDZeQKyTI7w9mb7KTjYZrUD6v5+nzNDtrr7US4v7s9Vlr7+0Vlzi3C4QQQgjh8PZ0BwghhJCRiAIkIYQQwoMCJCGEEMKDAiQhhBDCgwIkIYQQwoMCJCGEEMKDAiQhhBDCgwIkIYQQwkPg6Q48nrQCK2dkQqvX4K2jeWg1N3u6S33yzEM5mBM7l31dpb2EN//yqgd7RAZbTLgZu7dUQD3GCs1Nfzz/ZgKq68We7hYhZIh5PEAOlseTVmDJ9Cex9+QufHO5ZNjaTB4/C+8VvztsbQ5ESoIU+S9EQSZyTRzsPabD9oMNiFH7Y/fGaKiVQs77F2stWJlXPVxdHVF+nXMJALA0N5kCIyGjiMcD5Oflh/F5+WFPd6NfpkTcj2s3r9wVwREASiuMmLnhAgBgZ04UJoaL8Py7V1GtsbqUdQyITGA98dakXsvfq1KmtiB8rBWHilQUHAkZZWgOsp8U4iDIRAGe7sawKK0w4tDJZijlAsyOl3q6O4QQMiw8NoJk5h4ZfHN3jyetwMLEZfj41B6smbMOUv/ug/Opqq/xwVc7AABblmxDrGoSu89z8zfiufkbAcBlXnPmhFSsTVsPXx9f3vcV4iC8vDgPV25Uo6G1ju1fR2dHv1K3zp/RaDXiN19sRW1TDaecc796+y7u9H0NJW2zDQCgCupJvTqnYztsXXj7z1oUnNBx3v+x3oKr2g6sXaTkLQd0j2jnJfWccPCVcU4RO5fJWqDEiytC8NHxm3giNYjt12hODxNC+s9jAZJJrTJBqTdSfymeTtvABqhnHspB8vhZOF93Ft9cLmGDxJ3mIPne37JkG15enOeyOGhO7FwYrUbkfbIZtU012LJkG5bdvwo/NlQi44E1nEU5KrkaH647BIAbSGdOSMXE0AQ8vScDQE/wfT59E6c9JvA5Bv3Hk1bg8aQVbOr5mYdyMCViOtsfpq4tS7YNW5BkAiMTKJlgVfajEQte7p6j27wqFC89qQIATmCblxQAg+UW1uXXoLTCiMK8GDz1iBKnK42o1lixeVUoUibL8OaBBs5+jrIWKPHSkyqUXjBgw45rALqD6pbVoVAFCbH9YAMAwE/ghReXh7BzqptXhWLtIiU2rwplyxBCiDtGfIrVefR2vu4sAEApG+N2HQpxEFLum4eyK2c4wbO48hhk/jJMDI3nlNfqNfhlYS470rtpuAGpXwACRHJ88NUOPL0nA7n7n4VWr0GV9hKe3pOBp/dk4PkPV7P1f3O5BPl/fZ2ts9XcjCs3qtl6ACAyeBwWJi5DlfYSGxwB7rxsZPA4TImYjuPnP2X702puRuk/v0SoIhyRwePc/h76K2uBEpnpwbjcYGUD2Or5wTCYOvHOoUa23OGSFuj0dsyKl3D21+hsyPzVZZRWGAF0B1mZxAchQd3nZ9EqX7Tbu3BF2/vc5vJUBXR6O6e9dw41QqOzubTHBEcAOFVpgMFyC9Eq33599jlTWrrrORfYr/0JIXcvjy/SGQ4BIjmkfgGYEzuXM/pjOAdbg6WNM6J0DF594Zz+BbrTrIxQRRh8hb44V/ePXutgyqyckclJsQLdJw+hijCXlO1giIsUofLDRPa1Y9ABukeUaqUQn22LddlXb7a7vHZc2MOMABkHipuQPFGKPbnjeFOrMWp/yMUC/Fhv4dRTrbHix3oLJoaLEKP27/+H5bE56wrWLqnHxatSzMyeM6h1E0LuDqMiQDIc05hDbcuSbYgaM55zCQiTKu2Pwu/2D+tqX3fm7TQ626CsamVW1zJzlltWh2LL6lCXoDyctheMx/aC8dicdQXl+0vw9v5xKPgizCN9IYR4xohPsQ6GNosexvY2jJGNHZb2mBWud7oEpKH1OjpsHQhVRAyojCc4p0kHQ7XGigUvX8LSV6s4qdNqjRV6s91lpBij9sfEcJHLCHUwnToXiHabN1TB7UNSPyFk5LpnAqTOcBMAkMgzQmPm7GJVk/DMQzlD3pdWczMMljbIRAFQiIMAuN5xBwBqm2pwru4s5sTOxeNJK9jtzCKd25XxtAPFTQCArf8RPujpzZAgAWQSH3ZBEACcqTRBrRRiU0YIu21TRgiUcgGOlLQOavuEEAIAgsAgNYAOmFp16Lg1fA07BwxmNWh/L6n45nIJlLIxWDkjk63X8TIOJj3p+L5zmcG0/9T/4GePvYb8zPfZdj4vP4y0SQ9zyn3w1Q72khJmjtH5Eg4mLew8D9nXSz347qTDzCH2NZ1ZWmFE7h+uIf+FKM48JN8c4p0U5sUgLlLE2fZleRtnrnL7wQZom2146UkVOzdqsNzCht9dZRf/EELIYPKKS5zb5elOEDJSpUxtQf6mizhUpML2gvGe7g4hZBjdMylWQoZCY5MfDCYBFs7SISbc7OnuEEKGEQVIQm6jul6M196PhUxix2f5ZTix81sKlISMEpRiJYQQQnjQCJIQQgjhQQGSEEII4eGRAKkIVHuiWUIIIcRtNIIkhBBCeFCAJIQQQnhQgCSEEEJ4UIAkhBBCeFCAJL3amROFyg8TUZgX4+muEELIsPMWjaonQt7bYtT+OPHWJApohBAyCAT+AUp0DvOTPMjdwfFpGoQQMtp4W+ELX6GPp/tBCCGEjCgCABD6CAB0ergr/SOTypGVvR7X62sBAFOmJgMALGYzPi7YBa32Ols2JTUd89MXs68dyzD13LzRiDFjQxAcPBbnfihj66yrrcG+vTt6rcv5fUZy9nokLP83NF+pwme5z/T7c+7MicK8pAD2teNzF7MWKPHSkyr4Cr0AAGoI2WcmAj3PeoxR+2P3xmj8WG/BVW0H1i5SutTF15bzsxkBYPOqUGSkBeF3R7T46XIV+4xJ57J8z6Dka3MwvytCCBkMAh8Atk67p/sxYEwQe33rJqhUYViTtR6LHl3JBq2EhOmIio7F61s3AegJrE9k/AcK9u1i65kUl4jioqNQKlWIvS8eGk0diouO4sG0hUhImI6KirNYtjwTsbHx2PPebzjBNXttDm+QHKjNq0KRMlmGNw808D6IuOCEDgUndGwA1JvtWJlX3Wt985ICYLDcwrr8GpRWGFGYF4OnHlHidKUR1RorG+CY4NYbmcgbP8sIZQPdzpwopEyWIWuBEgUndOz+9Tfb2f4wZfr6UGVCCBlu3kKYYG2/O0ePjhxHcFrtdeh0jRBLJJBJ5QCAioqzOPDxbra8wajH9fpaiEVSSKRSdntT0w2cK+8eOQqEQpwr/5bTjkoVhtjYeJw+XcyOTg1GPX4o/xZKZQhUqjBO+bJ9u7BvedqARkTRKl+027twRWvtdx2ONDobMn91GaUVRgCAttkGmcQHIUF9W7HlPAo8U2kCAKiChACA8Sp/+Am82O18ZRwNxndFCCGDRWBt0+PuHz+6J3ttDiIix3G2WczcZ/uZTSYYjHoAgL3DBp2uEXJFIPu+UhkCga8Q89MXc1KsAGCz26BUhnDSuoPhQHETkidKsSd3HG9qsq/0ZjuqNT3BdqgW41zRWtFu78KseAm7bVa8BO32LpyqNAxJm4QQMlgEllESHbPX5kClDsfhwgJUVJwFADZV2h/FRUdRWlI0mF3sVWmFETM3XGBTqFtWh2LL6lB2bnGkamy2w2DqRFykiJ0TZQI8M3olhJCRalRcBSmTyiGWSKDV1LPBsb90ukbYO2xQKlWD1Dv3VWusWPDyJTZQOo7MRqIVqYGQSXzYuU5CCLmbjIo76RiMephNJs6c5LLlmeyK177Qaq+jqqoSU6YmIyU1/Y7lk7PXI/vISSzN/6DPbfUmJEgAmcQH2mYbZ3u1xgq92Y7wMX5ISZD2svfw8hN4YbzK362yzHeV8f5BKCLG3XkHQggZQoLAIDWADpju8ZsFHPtrIdZkrcfGl/IAdC/GKS0pwvTps/tc16dH9gOAyzxkb5d6DFRhXgziIkWcbXyXXgDAz9+vx+6N0diT2xNg+pqKdW5vXlIAKj9MhMFyC7l/uOb2aHD7wQbMipewKeE79d+su4FOmw2iwCCop96P1roat/tMCCGDzSsucW7XcDeqCFSjtUUz3M2SYbYzJwrJE6UuQfV2l3oszf8A8oho/OOj3ag8emi4u0wIIaxRkWIlnsF3KQezne+ylfjFGZBHRENfd5WCIyHE42gESYYMs5hIreQGSo3OhuffvcpeahI2bQbSNm+Fr1iCum9LUfTGK57oLiGEcFCAJIQQQnhQipUQQgjhQQGSEEII4UEBkhBCCOFBAZIQQgjhQQGSEEII4UEBkhBCCOFBAZIQQgjhQQFyFMlaoET5ewnYvCr0zoUJIWSU8/alEEkIIYS48JYolKAgSQghhHB5W+ELX6GPp/tBCCGEjCgCAOjs7PR0PwbM+QHITU03ULBvFwxGfa9lGM7Pccxem4OIyJ7nKRYXHUVpSZHLfumvvIGIB1L6fYPtrAVKvLgiBB8dv4knUoPYm3pfrLVgZV41gJ4bfuvNdnYb0P3MRrlYgOffvYqQIAHyX4jCyR/akDY1ADKRN/Ye02FWvARxkSLOsxfb7V0wWTtx4q1JvO0xNq8KxdpFSva1c5mUBCnyX4jCoZPNiFb5Yl5SAADwPjNSETEOC37xa4gCg+gxVoSQu4a3v00Pq93T3RiYlNR0AMDrWzfh9a2bsOe930AskmLlk0+xZZYtz0Tc5Kk4XFjAlrGYzZzgKJPKsf7FLZy6DhcW4MG0hWwbg81P4IUXl4fgeJke8U+fx95jOsRFivq1kOaR++X4/eFGXKy1YOkcBbTNNnxZ3obkiVKkJEh523vzQAMmhPpz2tuZE4WMtCCsy69B/NPnsfTVKsjFAhTmxbi0uXaREhPDRVj6ahWWvloFg6kTuRmq/n8hhBAyQghMJhOG/XEeg8x5dKfVXodO1wixRAKZVA6DUY/AwGC06Vtw7erlXstMSUqGWCTFJ4f+yNZVUXEWyTNSERs72aWdwXos095jOmw/2AAAOFVpQEZaEKJVvn2u53KDFQUndFieqoCv0BsHipuwen7wbdtjys+KlwDoHhkmT5Ti0MlmdhRYrbHieJkeGWlBSEmQckaHziNLvdkOuViAGLU/+zir1roaHHp2VZ8/DyGEeJLAV6GGr6kRxva7N80qk8qRlb0ewcFjOdubmm6w/9/S0gSVOhxR0RNQUXEWKlUYlMoQVFVVsmlYpVIFkViMdc/9zKWNpqYbbCAdqbTNNvb/DaZONDa7lxrQNtswMVyEGLU/xqv84SfwwtpFSk6KFQA6bF0Yr/LnBEjHNgG4pGoJIeRuJTCZOqCQSCFo1+NuzLQywVEskmLPe7+BVnsdQPc8olgiYcvpdFoIBclYsTILK1ZmAeiee/z0yH5OfRazGR8X7GLrGQ1UQUKXbY6jTEIIGY0EAACbHXfr+FEilUIskqKqqrLXoCaTyjE16QGc+6HMJSA60um0iJs8FUplyKgJkDFqf8jFAujNdlRrrAgJEqDd3tWvFC8hhNxLvBUSX1gtd+88pMlohNliRGBgz1yb8ypUhmMZPufKy9Cmb8GiR1dCpQq7Y9vpr7yB7CMnkf7KG33vuJuqNVbOvB7QvYI1LlI0KPVvygiBUi7AkZJWAEBphRFlPxoxLylg0O64o4gYh4z3DyL7yEkkZ68flDoJIWSoCQzNmrsytcowGPX4+qvjWLzsJ/jFa+8A6E6dnvuhDGHhkb2WYTimVA1GPQr27UJW9nqXecjeLvUYDvmHtMh/IQqfbYsFAHxZ3sbOG/bFFa0V7fYuzvyiwXILG353lTOvuGHHNezMiXKZh+S7HMQdrXU16DC2AWNDoJ4yvc/7E0KIJ3jFJc4d9sGjIlCN1hbNsLWnUoVhTdZ6VFVVclKszHadrpFzHSQZfPGLM3D/U89DX3cVn+U+4+nuEELIHY2Km8wplSEQ+LouRGG2t7Q0eaBXo0vM/EUAgOriYx7uCSGEuEfg6Q4Mh4qKs5ArAjE/fbHLnXQ8mTodDZi7DXWYTSh+Ywuuf/+dp7tECCFuGRUpVkIIIaSvRkWKlRBCCOkrCpCEEEIIDwqQhBBCCA8KkIQQQggPCpCEEEIIDwqQhBBCCA8KkIQQQggPCpBDLD4lE//+i5NYvOFjiKTKO5Z/bdpP8dq0nw5Zf2RSOda/uAXZa3OGrA0y9HbmRKHyw0QU5sUMaTtSoQS/feBVPKxOHdJ2hkqM2h8n3pqEyg8T3b75fmFeDE68NYl9OAAZvbwDZRJ4eboXd5GoyelY+bO/IGpyusv2J7f8DfEpmf2u+5n7VmG8NBLvXfrTgPq4bHkm1r+4BTKp3OU95vFgw3V7vYSE6fh///WWS39SUtPx//7rLSQkjI6bl2ctUKL8vYRBe0LKcDHaTDha/xVejFtz1wZJQvprVNxqzpMqS/ejsrT3Z1AyHlan4hF1Kt48vxtai25AbQYGBsNsMsFg1Lu8x9x/VqfTDqgNd02IiYNQIESAPBBR0RNQUXH2X/1QoU3fgmtXLw9LP+41G3ZcG7a2/q4pQZRUjTUTluF8y6UB/z6HU7XGigUvX/J0N8hdilKsI4BKpMSaCcvwN00Jvm+qHFhdqjAolSG9jhDlikDYO2y4XD08B43AwGA0Nd2AvcMGuSKQs723IE5Gnv+t+Ryt7Xo8N+nfPd0VQobNPTOCnL3svxA95RH2td3ejm8/+zWuXei5EXl8Siamzn+Wfd1ubsOX+3PRoq2CSKpE+lPvAgCKPtoIi1HHqTs0Zha+3J/rdn+c27pZdx4n9r3IWzYxcBIA4Ghdca/1yaRyZGWvR3DwWHab443Wly3P5NyIfcrUZPa1zW7D0U//FxUVZ6FUqmC2GBEWHoXs//z/IBQIXepiOD94+twPZZzHhS1bnomw8Eh8cuiPeCLjP9i+1dXWYN/eHZBJ5RBLJLh5oxFjxgKxsZNRWlLEbr9eX3vb9hzrSklNx9SkB3Dp4nmkpKbDYjbjr389hEcfzYBILOb0n3mMmUgsdvn8jpKz1yNh+b+h+UrVgB7BtTMnCvOSAtjXHbYuvP1nLQpO6Fzec34WZ+4frqG0woiUBCnyX4jCoZPNiFb5svs4luFr68vyNpfRJDMveabSxLbl2CdG1gIlXnpSBV8hd5LFuU2gJ9W67r5VmBYcz3siN9Dvc/OqUGSmB/faz9ILBvazMt+XTOTN+/li1P7YvTEaaqWw18/v2K7jc08BQKOzuZQLmzYDaZu3AgBObn+Nbrw/CtwTATI+JRPh8Wk49cl/cwKio6jJ6RgbNQ1/ej0NANiAmLLyNTYgXin/KybPfQpjo6ay9YikSgSHx6Gh+gxatFUICI50q09MatUx8PZmTsg0tLbrYbRbeN9PSJiOxct+Aq2mHrt+vwlAd3B6MG0h9K0tqKg4i0+P7MenR/YjJTUdD6Yt5A0IQPfITSyW4sEHH8a+//kttNrryF6bg6lJD+BceRkMRj3nOZmvb93E6YNOp2UDUWBgMABgTdZ6nD5djNKSIrb9hITp0OkaIRZJodF8i46OdoSFR0ImlSMqegIC5IH4ofxbAD0BzWwx4t238zh9YEbCSqUKYrEUU6bcj+Kio3gwbSGWLPt3/P34EcyclQalUgWge25zfvpil5OHRY+uhE7XCK32ult/P3dtXhWKlMkyvHmggffgyxzQmYP8/qImbD/Y0Gt9axcpodHZsPTVKgDA7o3RyM1QobSimlMfEyB6Excpglws4NTz1CNKnK40olpj5Q06hXkxCB/j5xIcGedbLsHS2Q6lX5A7X02fnao0ICMtCMtTFZzvcla8BO32Lhwo7v4t8PV9Z04UtqwOhSpIiO0HGzipVSbw8tmZE+Xy9yvMi4FcfE8cGskA3RO/ArkyGp0d7Whrqu21zLULRZzgaTHq0FR/EaExs+AvDYTFqEPD5W8xadZPEDtjBVt23NSFEAWMhaZ6L7uvt9APc574JeY88csB910qlCBIKMf51n/CaDO5vC+TyjH3oYXQauo5D3X+5sxXiI2Nx4SYOE4gvN3cHpN+FQiFOPZFYa/Bggkmju1NiIkDAOhbW9h+iSUSBAeP7fWRYUplCODVs0/c5KmIip7AplqZ7YseXQmzxYiCfbvYlKvzXGlgYDDbb7kiEEKBEOd+KMP1+msQi6TQ6bRQqcIwe/Z8Tn9kUjnCwiNhthhhMnIP+mX7dqFs3y7e78Bd0SpftNu7cEVrHVA9jIu1FqzMq2Zf6812yMUCxKj9Ua1xvw2Nzobn373K7vNjvQXJE6UICRKgWgOogrpHVmcqe35zZypNyEz3x3iVP2+ANNotaG3XY07INPxdU+Ly/kC/z9IKI8p+NCJ5ohQpCVKUVhgRo/bHxHAR6m+2s31anqqATm/HO4ca2X3fOdSIieEizIqXuN1eSoIUyROlKL1g4D25cXb9++9wYPVjff9g5K51TwTIS98cRGjMLCxa9wFvapWxIPv3GBORyNnWbm5j/79FW4WG6jMIjZmFQFUsWrRVUMfORkvDPzn13bK145RTG1GT0/HA0p/3ue9SgQgKP9fVpmy90RMgFkvx9VfH3arPnQU6Fy/8wAZVJtAx+zBBVCQW4xevvcPuazGb2REn0LMatq62hhMcS0uKOCM3dAE6XSN0ukbMnj0fckUgJ4gz7VVVVXL67BhEmT5qNfWoqDiLZcszYTGb8c2Zr6BUhsBu78Dl6kuYEDMJIrEY89MXY376YrYuJk07FA4UNyF5ohR7csfdNo3nLm0zN7XnGCwHE9POrHgJ299Z8RLo9HacrnQNjsPlTKUJKZNlmBMvQ2mFEbPjpZBJfPDR33pSp3KxAD/WWzgnDNUaK36st2BiuMjtk4nxKn+2TUL43BMBskVbhU/eXsKmM5nR3Q/F77MrSBdk/x6Bofdx0rDM3KIjTfUZhMenIXTCAwAAqVyF70/8Ycj6zpyV92ZCTBwbZBwxo7PL1RfZbY7Bhg8TdBz3YQIdMx84IWYSBL5CHC4s4E3ROrYv8BWiqupCr2UCA4M5IzezxYjY2Mnd//+vgBwVPcHlc8ikckxNeoANokwfmZRsYGAwmy6dOeshdNg6YDJ2193UdIMzEh1qpRVGzNxwgZ3z2rI6FFtWh2LvMd1tU6medkVrRbu9C/OSAlD5YfdJIzP3eKfgct3UeNv3B6LghA7LUxXsSHBWvAQGU6dHgzYZvQQQyqEIkgM2PVoNJgz705MHkcWow9Gda9hAqY6dzc4D+ksULiNBPtcuFCF2xgqoY2cDAIx67R33GQijzYRmmx6JivsgFUp406x8kmekwmw2clKpd7qEQ6lUwd5h4wRbvkDrDuc0qTPHhThMsLpeX4tx47oXkNTU9D4ympKUjODgsairreEEUX1rC3sScPp094KmkbIalpnzYgJlX1J9nrB6fjAMpk5k/uqy26lbJttxzTi0Dzs/U2lCRloQlswOxMRwEY6X6dk+Vmus0JvtLiNFJhWrN9v7lIr2E3ix6WamHpp/JAxv2PRobdag5S4Pjo78pYHw9ZfD1NJ9Bm8x6mA1tcJfomDvZuO86tWRpuo0xkQkYur8Z6GpOj3k/T3V+D1CxWMRG+C66OJy9UUIfIWYOeshdlv22hyo1OH4+qvjnMCg0zXC3mFjF6w4cxx5MZxHqJerL8HeYUPyjNtfFM4XbB0xoz7HYH25+iL8xRLIAhSc7QKhkJ3jTElNx+zZ89HUdIN9X64IZE8GHOc1mSDMLOSpqrqA4OCxmJLUs5r3dpKz1yP7yEkszf/ArfLuCAkSQCbxcUmVMiO2kRQ4ZRIfhAS5HwwSAydB5OMHXXsz7/uD9X2eqjQAAJanKODn68W+ZpypNEGtFGJTRgi7bVNGCJRyAY6UtLrdzulKI3R6OxYmyxGj9ndZ+eosbNoMrD7wBbL+fALxizP68cnI3eaeOFXim1u8eu5vOP3pr9jX/zj2W8zLzMfyTYUAAENzHSpL92PCtCUu9dX8cBzjkx5l/78/nAOwLCgC//6Lk7xzpMzqwKWR6S7L5ysqzkKuCMT89MXsZRtNTTew87e/chk1abXXcfp0Maes8yUXzpdWOKdBtdrrOPbXQixe9hPOHKTjpRLMwpfbrQp1XqAD9ARwoGd7RcVZTIiJYy9LsZjN+OSTj7Do0ZVs4IuNncyOEuWKQDagM/OzzOi3tKQISqXKZQ5yKNOuhXkxiIsUcbbxXXpRWmHE7w834qUnVS4pTb4FMe62x6RI+1rXO4casXujCHtyx7m8x5celgolWBz+EC7oqwZ8re6dMIt15iUF4MvyNpfPtP1gA7TNNpfvcsPvrrJlnS8DAcCmv5mFUNUaK177Yz3yX4jCZ9tiAXR/9miVLyaGc/+mAGDS6dBhNEI6NgShU6aj8uihofoKyAjhFZc4d9gHjopANVpbhjZNMxBMirap/iInyA6lh9WpWHffKrx5fveQH4AIYS5lcFzpymznu9TjmftW4cGQGfh52a/vqjvpDDbmWs+6b0tR9MYrnu4OGWJ0Jx0eKRl5AIDyoveGrc2/a0pwQV+FLYnPY1pw/LC1S0af3ubZmO0GUycam+3s9ofVqVgSMR8fX/50VAdHRcQ4RM95CB1mEy799bCnu0OGAY0g/yVQFYt5mfnwEwfA0Fzncjed4cI8yWPr978b9rbJ6MGXggRcr8OUCiX41bRNOFr/Fe+1j6PF0vwPEDQ+FsYbjTjx+s/RWlfj6S6RYUABkhBCCOFBKVZCCCGEBwVIQgghhIdHAiSlVwkhhIx0NIIkhBBCeFCAJIQQQnhQgCSEEEJ4UIAkhBBCeHjsXqxZj13HS5k18BXewpdlwdjw1mRPdYUQQghx4XNf3Ow8L5sB9lvD2/C5qgDs/iQSbSYB/u3hBsgkdpw6Fzi8nSCEEAMMgOUAACAASURBVEJ64d3SrIHFfueCQ6XgizBcvi7GrET3H1NDCCGEDDWagySEEEJ4UIAkhBBCeHiL7olHJhNCCCGDy9s/QA2pn49HO3HmvAITwszIeoz/6fSEEELIcPNKnPmTLpmPHq0GE4b9uVcOUqa2IH/TRQBA7jtxKP2BVrQSQgjxnO4Eq1AAHwCeWsy68+ULSI7XU2AkhBAyYnh7+wCwWj0WHAFApWxH/Q1/Co6EEEJGDG+JsAMma7un+0EIIYSMKIKWZp2n+0AIIYSMOHQdJCGEEMLD4wEyZWoLwsdaodX5eborhBBCCGtEPM3j4lUpPc2DEELIiOIVlzjXk5c/EkIIISOSx1OshBBCyEhEAZIQQgjhQQGSEEII4UEBkhBCCOFBAZIQQgjhQQGSEEII4UEBkhBCCOFBAZIQQgjh4R0YpIbUz8fT/SCEEEJGFEFLs8bTfSCEEEJGHEqxEkIIITwoQBJCCCE8vANlEnh5uheEEELICONtghwKCpKEEEIIh3eHxQQIRRBSspUQQghheeOWHTb4wocCJCGEEMLyhrcAQnSg85anu0IIIYSMHN6iAAlgNaCDAiQhhBDCEviYGtHS3unpfhBCCCEjireRgiMhhBDigpbmEEIIITwoQBJCCCE8KEASQgghPChAEkIIITwoQBJCCCE8KEASQgghPChAEkIIITwoQBJCCCE8KEASQgghPChAEkIIITwEnu7A7UQGj8PPHnsNUn8pAMBoNeI3X2xFbVONh3tG+kIhDsLLi/OgkqtR+N1+fF5+eMjbAYCOzg7sPbkL31wuGZL2yOgTE27G7i0VUI+xQnPTH8+/mYDqerGnu0WGiCAwSA2gA6ZW3Yh7okdtUw1yCrIBAM88lIMpEdM93CP3FebFIC5SxNmm0dnw/LtXUa2xeqhX97ZWczNeOZgDAHg8aQWWTH/Swz3qGybAGyxtePMvrw5pWykJUuS/EAWZyDWJtPeYDtsPNiBG7Y/dG6OhVgo571+stWBlXvWQ9m+k+nXOJQDA0txkCoyjgKDV1AGFxIZbIyw43gscAyJzsNn/XxOQ+4drKK0werp7w8YxcJGRobTCiJkbLgAAduZEYWK4qNeTN8eAyATWE29NGnUneylTWxA+1opDRSoKjqOEt7/EFzaTEXZP9+QeV62x4qO/6eAn8MKceJmnu0NIv5RWGHHoZDOUcgFmx0s93R1ChpTAHyYYPPjIqy1LtiFWNQnAwOaMnnkoB3Ni57KvtXoN3jqah1ZzM7vt8aQVWDkjk7Of85yY8zxWb3X1xxWtFe32LkSrfLl9cErHMikuBnOG/9vDjXh1jZpNi31Z3oYNO66x5fjSZs7pML60mWN7zPs/1lsAAPOSAgAABsutPo983ZkTfDxpBRYmLsM3V0qQHr8IRqsRH5/agzVz1sFX6MuWZ8ox7zHz0qeqvsYHX+1wu0+MmRNSsTZtPXx9uv8Wjn9jZu77myslmDk+FVJ/KQq/248pEfcjVjXJpU3n31WV9hInRbplyTYAwLm6f7DlHL8L576o5Gp8uO4Qu7/zb9T5tz7cc63aZlt3P4N6fkNZC5R46UkVfIVeAFynExx/V1e1HVi7SNndd1sX3v6zFgUndGxdO3Oi2N9db2U2rwpl6+BrL2uBEi+uCMFHx2/iidQg9vc+mtPDpO8EsFo9MnpkDp5SvwDkfbIZtU01UIiDsCblGfzYUNmnYPR40goAwNN7MgD0LO55IT2XPVDNnJCKJdOfvOMikRfScwEAufufHXBAdDZe5Q8/gReuajsA9Bw09GY74p8+D6DnQAOAEyTVSiF+vS6cDWabV4UiMz0YWQuUKDihQ4zaH1v/Ixz1N9t7PQAwAbT+ZjsWPN09l8IcaKJVvpxgOy8pABdrLYh/+jy7X26GCqUV7h9c3J0TlPpLMTlsCt7+4r/xdNoG/NvMp3C47AAeTlyM+fGL2AO/1F+K5+dvYv+GTGBqaK3r08Ifpi+OQWXLkm14eXEe3jqax5Z7cOJ87D25C/PjF2F+/KO4qKnATcMNTImYjsjgcahtqmHnxh1/wy8vzsOWJds4QTJWNQkyUQBy9z8LAHh5cR6W3b8KPzZU4pvLJfjmcolbc5CPJ61A8vhZeK/4XY8tPmICIxMomd+iYxArzIvB7o3RLmnYeUkBMFhuYV1+DUorjCjMi8FTjyhxutKIao0Vm1eFImWyDG8eaOAEREc7c6I4ZXqbvvATeOHF5SGcfzNrFymxeVUo598WIb3xNlnbPdJwxgNrECRVYv+pD9hVqa3mZvz+72/1OTB9Xn6Yc0Zf21SDhtZ6yEQBUIiDAABK2RgAgM5ws9d6FOIgyEQBMFjaBj04piRI8eKKEOj0dhwuaQEArEgNhEzig/xDWrZcwQkdLjdYMStewtm/w9aFNw80sP+wnc/iQ4IEkEl82O18Vs8PBgBOe9sPNuBirQUTw0WIUfuz2x3PtEsrjKi/2Q65WMApM5hK//klDFYDhD5+0Blu4PtrZbzlHE9wSv95Elq9BlMi7ne7HYU4CCn3zUPZlTOcAFNceQwyfxkmhsaz267dvMKWEfr44m/n/8KpKzJ4HKZETMfx859yfsOl//wSoYpwRAaPY8s6jlBbzc24cqMaUr8ABIjkbvcdAEIVEeiwdaCh9Xqf9hssWQuUyEwPxuUGKxucFibLUXrBwAloR0paIZP4uKRhNTobMn91mQ1i2mYbZBIfhAR1L6iPVvmi3d6FK1r+uc2UBCmSJ0o57d1u+sIxO3Kq0gCD5ZZLBsddc6Z0/7s9dS6wX/uTu4/AUytXx8jGotmow48NlQOuiy8tCnQflBil/zyJlPvm4bn5G/Hc/I28I0nm4LZyRiY+XHdowKlVtVKIz7bFsq+dU6LRKl/IRN7YkzvOZV+NzoYYtT979u180Cg4oeMckEorjCj70Yh5SQGo/DCRN5WkChKi/ma7S5r0TKUJGWlBCAkSoLF5+PMJHZ0dnBOXm4YbbpVrNTfDYGljT4Tc+TsFiOSQ+gVgTuxcTpqSoZSNYYOPYz+M7W1os+g5ZUMVYfAV+mLljEyX1H1HZwdCFWGDfknS387/pXvE+sT2YUutxkWKUPlhIvvaMegwJ2bM786ZYxoWAPRmO2dE6fjvAQAOFDcheaIUe3LH8aZWx6u6T9DOVJo4+52uNEKnt/c7+N3O5qwrWLukHhevSjEze86g109GrhF9HaQ7+FK1QHfKTCbqmcdwTPdtWbKNPag5zyd9Xn4Yn5cfZueF8jPf7/f1l+5c1tGfub3eMAcbJpVU+WHiqLi0pD8j/tvNXTqO/NwxlNd2OmMufWJ+97c74Rss7szbOZ/89RezupZJm25ZHYotq0Nd5uWH0/aC8dheMB6bs66gfH8J3t4/DgVfhHmkL2R4eexOOjcNN/qVYnLGjAjO1Z11O4C9+ZdX8fSeDFRpL2H82Bg2Devom8sleP7D1Xiv+F34Cn2RGJE0oH7yuartgJ/Aiz0rHizbDzYg/unz2HtMx1ltqG22IXyMH1ISuGmvWfESGEydHhk9DgSTEu9txMmnzaKHsb0NY2RjB9x+Q+t1dNg6EKqIGHBdfcWc8OXuf7bPaebB1Nhsh8HU6TJSHKhqjRULXr6Epa9WQaOzsVMOTBbFeQpidrwUSrmAnd8fCqfOBaLd5g1VsGempcjw81iAZOZznk/fxAYohTgILz78Mm/A6g3fAc9xZWxv3J1vdGfusr8Ol7RAp7fjxRUhLkFrMDjP55ypNMFP4IXcDBVbZvOqUMRFinC8TH/XjTJfSM+F1C/AZW7wdpg0eqxqEp55aGDXZtY21eBc3VnMiZ3LLhQbCCZl7Dx/eTvMCWJfThIGU7XGiuNlesRFirAzJ2rQ63eeW2fmw1Mmy5C1oHsVa4zaH089ouTM7xMyGDyWYq1tqsEvC3Px8uI85Ge+D6BnuToTsJyXvwNA3hPbAfSkyFrNzfj0HwexNm09uzS+SnsJp6q+xvixMex+zkvjmXKOqwWdb23n2KehmOep1ljx/LtXsXtjtMs8ZF9TSs7L7AHX9G3BCR2uaK3IfyGKnS9iFv/0tmJwIPi+TyYl6Pzdu8PXx5fdH+ieY/5lYS77e3G3PSYVuXJGJu+lQX3BpGmd5yH78/kA4A9F+Xh5cR77Owe4KVy+k7/+XOrCd0kQM1/e198eU5ZJ6zP6k97nuwOVc/p2ZV41duZEselXgC7fIEPDKy5xbpenO0HInfBdmkHIcEqZ2oL8TRdxqEiF7QXjPd0dMgzoaR6EEOKGxiY/GEwCLJylQ0y42dPdIcOAAiQhhLihul6M196PhUxix2f5ZTix81sKlPc4SrESQgghPGgESQghhPCgAEkIIYTw8EiAVASq71yIEEII8SAaQRJCCCE8KEASQgghPChAEkIIITwoQBJCCCE8KECSXu3M6b5na2FezJ0LE0LIPcY7UCaB153LkbtAjNofJ96aRAGNEEIGgcAEORQyoNVgAt1ShzgajAfgEkLI3crb1tEBCAXw8XRPCCGEkBFE4OPjC9gs6PR0T/pJJpUjK3s9rtfXAgCmTE0GAFjMZnxcsAta7XW2bEpqOuanL2ZfO5Zh6rl5oxFjxoYgOHgszv1QxtZZV1uDfXt39FqX8/uM5Oz1SFj+b2i+UoXPcp/p9+fcmROFeUkB7OsOWxfe/rMWBSd0Ls+CVEPIeS4f83y/GLU/dm+Mxo/1FlzVdmDtIqVLXXxtOT+PD+h+0HJGWhB+d0SLny5Xsc8VdC7L99xBvjYH87sihJDBIJD5A9a2uz+9ygSx17dugkoVhjVZ67Ho0ZVs0EpImI6o6Fi8vnUTgJ7A+kTGf6Bg3y62nklxiSguOgqlUoXY++Kh0dShuOgoHkxbiISE6aioOItlyzMRGxuPPe/9hhNcs9fm8AbJgdq8KhQpk2W9Pti44IQOBSd0bADUm+23fXjsvKQAGCy3sC6/BqUVRhTmxeCpR5Q4XWlEtcbKBjgmuPVGJvLGzzJC2UC3MyeKfdJ7wQkdu3/9zXa2P0wZ5+BICCEjjbehWQOL3dPdGDjHEZxWex06XSPEEglkUjkAoKLiLA58vJstbzDqcb2+FmKRFBJpzxPom5pu4Fx598hRIBTiXPm3nHZUqjDExsbj9OlidnRqMOrxQ/m3UCpDoFKFccqX7duFfcvTBjQiilb5ot3ehSta95/MfjsanQ2Zv7qM0gojAEDbbINM4oOQIEGf6nEeBZ6pNAEAVEFCAMB4lT/8BF7sdr4yjgbjuyKEkMEikAWpYTM1wth+tyZZ3Ze9NgcRkeM42yxm7vPczCYTDEY9AMDeYYNO1wi5IpB9X6kMgcBXiPnpizkpVgCw2W1QKkM4ad3BcKC4CckTpdiTO443NdlXerMd1ZqeYDtUi3GuaK1ot3dhVryE3TYrXoJ2exdOVRqGpE1CCBksglZTBxSSQPjadOi45enuDJ3stTlQqcNxuLAAFRVnAYBNlfZHcdFRlJYUDWYXe1VaYcTMDRfYFOqW1aHYsjqUnVscqRqb7TCYOhEXKWLnRJkAz4xeCSFkpBJ0ddoAuKa77iUyqRxiiQRaTT0bHPtLp2uEvcMGpVI1SL1zX7XGigUvX2IDpePIbCRakRoImcSHneskhJC7ibevSALYLLDdw6NHg1EPs8nEmZNctjyTXfHaF1rtdVRVVWLK1GSkpKbfsXxy9npkHzmJpfkf9Lmt3oQECSCT+EDbbONsr9ZYoTfbET7GDykJ0l72Hl5+Ai+MV/m7VZb5rjLePwhFxLg770AIIUNIIIF+VNwk4NhfC7Emaz02vpQHoHsxTmlJEaZPn93nuj49sh8AXOYhe7vUY6AK82IQFynibOO79AIAfv5+PXZvjMae3J4A09dUrHN785ICUPlhIgyWW8j9wzW3R4PbDzZgVryETQnfqf9m3Q102mwQBQZBPfV+tNbVuN1nQggZbF5xiXOHPTYqAtVobdEMd7NkmO3MiULyRKlLUL3dpR5L8z+APCIa//hoNyqPHhruLhNCCItuVk6GDN+lHMx2vstW4hdnQB4RDX3dVQqOhBCPoxEkGTLMYiK1khsoNTobnn/3KnupSdi0GUjbvBW+Ygnqvi1F0RuveKK7hBDCQQGSEEII4UEpVkIIIYQHBUhCCCGEBwVIQgghhAcFSEIIIYQHBUhCCCGEBwVIQgghhAcFSEIIIYQHBchRJGuBEuXvJWDzqtA7FyaEkFHOW9S3h8gTQggho4K3f4AaFCQJIYQQLm+DFfAXSeDl6Z4QQgghI4igs7MD8BfAB4Dd070ZAOcHIDc13UDBvl0wGPW9lmE4P8cxe20OIiJ7nqdYXHQUpSVFLvulv/IGIh5I6fcNtrMWKPHiihB8dPwmnkgNYm/qfbHWgpV51QB6bvitN9vZbUD3MxvlYgGef/cqQoIEyH8hCid/aEPa1ADIRN7Ye0yHWfESxEWKOM9ebLd3wWTtxIm3JvG2x9i8KhRrFynZ185lUhKkyH8hCodONiNa5Yt5SQEAwPvMSEXEOCz4xa8hCgyix1gRQu4a3l2dtjuXGuFSUtMBAK9v3YTXt27Cnvd+A7FIipVPPsWWWbY8E3GTp+JwYQFbxmI2c4KjTCrH+he3cOo6XFiAB9MWsm0MNj+BF15cHoLjZXrEP30ee4/pEBcp6tdCmkful+P3hxtxsdaCpXMU0Dbb8GV5G5InSpGSIOVt780DDZgQ6s9pb2dOFDLSgrAuvwbxT5/H0lerIBcLUJgX49Lm2kVKTAwXYemrVVj6ahUMpk7kZqj6/4UQQsgIIRAFSACYPN2PAXEe3Wm116HTNUIskUAmlcNg1CMwMBht+hZcu3q51zJTkpIhFknxyaE/snVVVJxF8oxUxMZOdmlnsB7LtPeYDtsPNgAATlUakJEWhGiVb5/rudxgRcEJHZanKuAr9MaB4iasnh982/aY8rPiJQC6R4bJE6U4dLKZHQVWa6w4XqZHRloQUhKknNGh88hSb7ZDLhYgRu3PPs6qta4Gh55d1efPQwghniSwtZngH+DpbgyMTCpHVvZ6BAeP5WxvarrB/n9LSxNU6nBERU9ARcVZqFRhUCpDUFVVyaZhlUoVRGIx1j33M5c2mppusIF0pNI292QDDKZONDa7lzTXNtswMVyEGLU/xqv84SfwwtpFSk6KFQA6bF0Yr/LnBEjHNgG4pGoJIeRuJej0EQI2Czo93ZN+YoKjWCTFnvd+A632OoDueUSxRMKW0+m0EAqSsWJlFlaszALQPff46ZH9nPosZjM+LtjF1jMaqIKELtscR5mEEDIaCfwlvrC26TDsT00eJBKpFGKRFFVVlb0GNZlUjqlJD+DcD2UuAdGRTqdF3OSpUCpDRk2AjFH7Qy4WQG+2o1pjRUiQAO32rn6leAkh5F7i7W9tguUuXr5qMhphthgRGNgz1+a8CpXhWIbPufIytOlbsOjRlVCpwu7YdvorbyD7yEmkv/JG3zvupmqNlTOvB3SvYI2LFA1K/ZsyQqCUC3CkpBUAUFphRNmPRsxLChi0O+4oIsYh4/2DyD5yEsnZ6welTkIIGWqCFnO7p/swIAajHl9/dRyLl/0Ev3jtHQDdqdNzP5QhLDyy1zIMx5SqwahHwb5dyMpe7zIP2dulHsMh/5AW+S9E4bNtsQCAL8vb2HnDvriitaLd3sWZXzRYbmHD765y5hU37LiGnTlRLvOQfJeDuKO1rgYdxjZgbAjUU6b3eX9CCPEEr7jEucOeXVUEqtHaohm29lSqMKzJWo+qqkpOipXZrtM1cq6DJIMvfnEG7n/qeejrruKz3Gc83R1CCLmjUXGzcqUyBAJf14UozPaWliYP9Gp0iZm/CABQXXzMwz0hhBD3jIq7sFZUnIVcEYj56Ytd7qTjydTpaMDcbajDbELxG1tw/fvvPN0lQghxy6hIsRJCCCF9NSpSrIQQQkhfUYAkhBBCeFCAJIQQQnhQgCSEEEJ4UIAkhBBCeFCAJIQQQnhQgCSEEEJ4UIAkhBBCeHhL/Xw83QdCCCFkxPGGJAQUJAkhhBAub5OpA0KJdHTclJUQQghxk7fQ1xeABEKKkIQQQgjL28fSBCsAHx9KsxJCCCEMb4vd010ghBBCRh72Mo/Ozk5P9oMQQggZUbzhLQAlVwkhhBAuby+hCEKYYKNUKyGEEMLylkh8YTMZQfGREEII6SHobNOAFuoQQgghXLSKlRBCCOFBNysnhBBCeFCAJIQQQnhQgCSEEEJ4UIAkhBBCeFCAJIQQQnhQgCSEEEJ4UIAkhBBCeFCAJIQQQnhQgCSEEEJ4UIAkhBBCeFCAJMPqtWk/xWvTfurpbowKm1eFovLDRJx4axJi1P6e7g4ZRFkLlCh/LwGbV4UOW5tSoQS/feBVPKxOHdR6X5v2U3yavhsfPbgdKpFyUOseKAqQQ2jmhFTsfvoAHk9a4emucGxZsg1vrNoBhThoWNt95r5VGC+NxHuX/jSs7d4tYtT+OPHWJBTmxXi6K4S4MNpMOFr/FV6MWzNoQZI5Jjx36lU89X+bobXoBqXewSLwdAfI6PCwOhWPqFPx5vndI+4fwb1q+8EGbD/Y4OlukHvI3zUliJKqsWbCMpxvuTSgf8tSoQSJivvwf43fjdhjAo0gyZBTiZRYM2EZ/qYpwfdNlZ7uDiFkAP635nO0tuvx3KR/93RXhtw9M4JUiIPw8uI8qORqAIDRasRvvtiK2qYatszjSSuwckYm+1qr1+Cto3loNTcD6E6Jrkn5T3zy3Z/wcOJitq4q7SW8+ZdXOe0981AO5sTOZV93dHZg78ld+OZyict7K2dksu069ovp85Ub1WhorWPLONbFlDFY2jh92LJkG2SiAE7/+T7jqaqv8cFXOxAZPA4/e+w1SP2l7Hv5me+7lOvt8zl/B0x9x89/ilBFBFuW73tPDJwEADhaVww+CQnTseixlTj2RSGSZ6QiInIcAKCp6QYK9u2Cwahny6akpmN++mLO/hazGR8X7IJSGYIFDy/Bd9+V4MG0hQCAvx8/gpmz0hAcPBbnfijDp0f2s/stW56JKVOT2dd1tTXYt3cHp+6waTOQtnkrAODk9tdw/fvveD/DnWxeFYq1i7jzK3uP6bD9YAOyFijx0pMq+Aq9AABqCFH5YaJLOQDYmROFieEi/PZwI15do4ZM1H2O+2V5GzbsuMbb1sVaC1bmVXPazlqgxIsrQvDR8Zt4IjUIaqWw17KFeTGIixS5fCbHNgeTTCpHVvZ6BAeP5Wx3/vvd7reg1V4HAKhUYViTtR4isRgAYLPbcPTT/0VFxVnOfumvvIGIB1JQ920pit54pc99dvf7LMyLgVwswPPvXkW1xgqg+2+aPFGK3D90f5f5L0Th5A9tSJsaAJnIG3uP6TArXoK4SBHnO2+3d8Fk7cSJtybd9u/n/PvS6Gyc9lMSpMh/IQqHTjYjWuWLeUkBAACD5RZy/3ANpRVGTn1MqnXdfaswLTj+nj7pvScCJHOwNra3IXf/s2g1NyMyeByWTMvAzhPbAXQf8JPHz8J7xe9yAs9/r8znHNCFAj9kpT6Lwu/24/Pyw2zAeTxpBT4vPwygOwg51uXsg6924IOvdmDmhFSsTVuPv5z9M7svnzmxc2G0GpH3yWbUNtVgy5JtWHb/KvzY0LcfHhPUmL4DQGbKM5g5IRXfXC5BTkE2gN6DK2PLkm0IVYSz/WG+3zdW7XDZZ+WMTGj1GuTufxYA8PLiPGTO+U9OMJ0TMg2t7XoY7RbefssVgUAXMPehhTCbTHh96yYkJEzH4mU/wZSkZJSWFAEAstfmQKUOx+HCAvYAl702B2KJBCajERNiJkEg9MXsOfPxfyePY/bs+Xjs8SdRXHQUsbGTERgYDKDnAAwA776dB4NRzx5Ily3P5ByEB0PWAiUy04M5gc5RwQkdCk7oEKP2x+6N0dCb7S4HOUdqpRC/XhfO1rd5VSgy04ORtUCJghM6NrXK1NcbP4EXXlwewqln7SIlNq8KZftZmBeD8DF+WJdfg9IKI3uwLb1gGJLgyPzdtZp67Pr9Js42nU7LlrvTbwHoCaDFRUfZ39Cy5ZlY9OhK6HSNbBAdLO58n+565H453v6zFstTFVg6R4FzV8zQNtuQPFGKlAQpb3vM38axPea38faftSg40Z3GLMyLwe6N0ZwgCQBrFymh0dmw9NUqAMDujdHIzVChtML1t3i+5RIsne1Q+g3vOobhdk+kWDPn/CcAYHfRO+zBu7aphg2OkcHjMCViOsqunGEDWqu5GZ/+4yB8hb5IjEji1OcYYM7XlcNoNSJUEcG+H6qIQIetAw2tg/MPTKvX4JeFuWyQvmm4AalfAAJEcrfrmDkhFcnjZ+FU1decYLy/9APeIH67eqLGjMfx85+y/altqsHx858iSKrExNB4Tvkq7SW8cjAHreZmtJqbYbC0QSYKYBcASYUSBAnlON/6TxhtJt42lUoVRGIxzCYTO4LT6Rph77CxZVJS06FSh3PO/mVSOcQSCcwmEwxGfXc9IjFOnyqGvrUFAl8h6mprcK68DGKJBC0tTQCA+Qu6Rx2Oo9MJMZMgEos5B2EAuP79dziw+jEcWP1Yv0ePqqDus3tts+0OJd3TYevCmwd65heZepl2+sIxaJ+qNMBguYVolS+A7kVDcrEA9Tfb2VHE6UojdHp7v9q6E5lUjrkPLYRWU88ZycsVgQAAfWsLAPd+CypVGGbPns8JjjKpHGHhkTBbjGwQZRS98Qr2LU/r1+jR0e2+z7643GBlA5qv0BsHipvu2F7BCR0uN1gxK14CoPvvtzBZjtILBrYuADhS0gqZxAez46Wcui7WWrDg5Uuo1lhRrbFCb7ZDLhbwroA22i1obddjTsi0Pn82RmxAFAL9AvCPpop+1zHU7voRpEIcBJkoAA2t9Zy0nqNQRRi8vLpwvo6bVvmxoRLNRh0n+Lnjb+f/gikR05H3xHZOOrS/KP02JwAAIABJREFUDJY2zqjMMdXp7kpTpWwMALh8xr5Sysagw9aB83XlnO3n68qxMHEZ2w7jpuEG57VzKloqEEHhd+dAb7PbUPZdz3c4IWYSBL5C9qAYGzsZbfoWXLt6mS0jkUohFklxvb4WABAYGIymphs4V16GKUndqdOy70ogkUrhK/TF5eqL7EEyOHgsNr6Ux2nfcTQymA6XtGBhshxbVodiy+rQXkeS7mq3d+GKtufMnxmBDjbmIBk+xg8pCVKUVhgxO14KpVyA42X6O1fQR1HRExAgD8QP5d9ytiuVKtg7bNDpGgHw/xac92VOeOanL+akYfnS6COR48mUwdSJxma72/tNDBchRu2PkCABZBIfzEsK4KTsGc4nOc4ncLfLYgzEtOB4bEl8Hg3mG1h/ZmuvJ84jwV0fID2htqkGOQXZbJr2ufkb8dz8jZyRJ+nGnGn2hglYWk09Jzg5HhSZ0cH1+lrOfOTMWQ9B4CtkA59jGaVSxR5EpyQlQyDwhU7XyB5IHUcWQ61aY8WCly8B6E5vrV2kxNpFyiGbwxtM2mYb4iJF2JM7jt32ZXnbkKyOlSsCYe+w4XL1JXabShWG2Nh4NiXa229hQkwcAHBOqPjmsO91fCP7ofydXTc19nmf75sqseqrHEwLjseHKW9izz8P4u+a/g8whtJdn2LlS+s5a2i9jq4uLyRGTOdsnxgajyCpEg2tdf1u+5WDOcjd/yy0eg2mRNzfr3oGg85wEwBcRnj9qYcv7ZwYkQRfoS/bjruMNhOabXokKu6DVChxeZ8ZBTLpT0ZgYDBvKozBHDiZIMrUo9Np2aDrGCxvV9dwWplXjfinz+NirYU90x+pUhKkSJ4oxd5jOsQ/fZ79bziD+sxZD0EkFrv8PhwlJExH3OSpnFHmaMSkxPVmO6o1VjQ222EwdQ5JOpzJDF0zavpdR1XbNTSYbyBKqh7Eng2uuz5AAkBx5TEESZV4IT2X3RYZPA4bFmwG0D3ia2itR/L4WZg5ofsCV4U4CMvuX4Vmow6l/zw5oPYDRHJI/QJc0o0NrdfRYesYUODkOwHYsmQbYlWTOOW+uVyCazevYMn0J9nPCPQs0nF003CDdz4R6Ek7L0xchsjg7lFDZPA4LExchms3r/QrlXyq8XuEisciNiDK5T2lMgQCXyFn7q+3UUJYeCRkUjm7oMbxYKhUhsBu78Dl6kucYAn8K9j+a27q2tXLaNO3YGrSA5BJ75z6DZs2A6sPfIHVB75A2LQZff7sfJwPZAznlOZI4e4cWvorbyD7yEkszf+g322JxGJMiOn+bS9bnolx42JgaGt1Kef4W1j06EoIBULOSVBV1QUEB49lU+3u9j39lTf63Xd3aJttkEl8EBLUnbzbmRPFrhodqE0ZIVDKBThS0v19VWusOF6mR1ykCDtzXP/tDURi4CSIfPyga3dd5HcvEQQGqQF0wNSqQ8ctT3enf765XIKG1uv42WOv4cN1hwD0XG7AePMvr+KZh3LYdCjAf/mGO/gClPNlEkB3YN5/6gOsTVvv0q/e5kv57D/1P/jZY6+xl2WcqvoaNw03MH4s944rfJ/xVNXXLkHtg692YIxsrEu5D77awY6KtyzZhrwntt/287mLWfG2NDLdZUk4X1rNeT7JYNTj66+OY/Gyn7DzhsVFR6FUqthVizNnPYQOWwdMRiOioicAXt3pNpUqDEplCE6fLmbr+uTQH7Emaz1nDpKpcyjSrnwHQb7l+ADw8/frsXtjNCel2dc5S+f2mMtGOmxdnNWMd1JaYcShk81Yu0jpMoflfKkAAOg19YgAII+IRvziDFQePeR2nwGgtKQIsbGT2XnDpqYb+OyzP+GJJ55iT3acfws2u429lMfxhKq0pAhKpcplDtLTadd3DjVi98aelPXFWgv2HtMhI61vq0GvaK1ot3ex6Xqg+7KMDb+7yrksg/ndOP8N+f5+7pIKJVgc/hAu6Kvu6Us8AMArLnFu13A3qghUo7Wl/0Nzcvd5WJ2Kdfetwpvnd9/z/6juFcxlA/uLmjgBurdLPRQR47DgF7+Gr1Q6oGtG+4q5DOT/Th4ftnnl0eyZ+1bhwZD/v717j2vqvv8H/hKSCEkghGQQuQgW0spF8YIXCl4GdWpnhVXXm7rifu3WL2v9Vnv7tv122m9/7X7tVnv323V+Vztrt3Xa6uZ3trM43aC6ar0iugJVFDDQYIjkAkmsvz+yc8zloCCXAH09H48+ak5OzueTQ5L3+bw/n8/5TMFjB57v9Z10np24EsfavsD6L97vwxr2nWGRYqXBb2dTBY5ba/D4uPswURec2qXBxxArFyeXS20/bXL5bU8vmg91XDyaqw73W3DMLyjCw488C4MhEcDlqSEXrBYcPXygX8qky+YkFOCW5EK8W7et17eHE8YnzIifMuhuUi5gC5IGlLCSx9OHXgtxTag7pNLDgala4W5DCqUKVVt/jwMb1vVrnYQWo1zmHXwS6rTpN4XQ4tvesLvPRp0Kx0yNSkKbq73XrdK+xgBJREQkgSlWIiIiCQyQREREEhggiYiIJDBAEhERSWCAJCIiksAASUREJIEBkoiISAIDZA/FJI/B4rfe7/YNmXNLy1C6dQ8Wv/U+YpLHXP0FREQ0KIRFckXIIAvXrmdAIyL6hpNFROtxcQiv5DHYHdiwrt9vvUVERH0vrAMKKOThoa4HERHRoCIDAHm4DMDFEFcltHxvuCwoeW2D+O+zn1Wi/LknxMd2cwuKnngOyVPzAQC2lmZ88sxjaDvrXecxt7QM2SW3i/uf/7IGf1x1T1C5whJB6rh4cVvgsbojv6AIeXmF2LFjM+bPX4xIpRIAcPTIAWzbukncL0qtwbLSMuh0ceI2332KS5YgMWk0vmppxtiMcWhtbcE/9u3BnLkl8LjceHfjOphMjZLHcnvc2L7td6iqOtjteve10uUrAAAH9lf43dBaaq3H0uUrkDzaP41+9swpbHj7VeQXFCFnwlScPHEM+QVFcDocfuc28HiBxwo878Dlz0RXnwUiGlxk4QDcFz2hrkfINR7aj/fuuhmAtw9SoY6+YpBKnpqP81/WYEPJLDG4zlz5pPjDJ6RWhQDYlZkrnwQAbH2gtEcBUUqkUolbiu8Ug1RxyRJkZOWgrvaEGLRuKbkTf9v9sfg4v6AIhUULYDabxB98nS4ODrsdH27ZiHk3L8K06bPwp22/xfz5izFt+mxs27oJBkMili4rQ01NNda9/jPxWAuK7wCAkATJKLUGSpUKHrcb825eJJ6H0uUrkDNhKo4ePoB2m1Wsu8Npw8svrvHbZrG0AoB3MWalGuPHT8au8u2YMWsubim+U1ycV683AID4OrO5Gc88vRLA5dUmfM8pEQ09MjnsaO/8Zrcer4VvK6Dx0H7YTE1QqKMRkzym24EuJnkMFOpouGwXeh0cgeAWXF3tCWRk5UAToxX3ee/dN/1eU1d7Enl5heIPvnCcA/u9y9nI5HI0NpxBq7nF73XTps+Gw2nDrk+2i9uOHj6AnAlTkZae0e0AKdWC9tWT5ZNUajWUkWrINHK/82CxtEKpupwZmDd/ERxOm98SSXp9PGQKubhyvVarg0wux0d/3gJNjBZymRxHjxxAY0M9lJFqcb958xfBbG7GhrdfFY+flp4BALC2Wfzqx/5ooqFF1nHBCrYfQ6Pt7Cmc/nQ3sktuR+nWPdeUWu2pwLX0pHhcbpjNzdDrvUFLCAa+tFoddLo4PPjQmqDnHHZ7t+vTdvYUNv/otm7v3x2mpgYxOEapNUhMGg2H3S62FPX6eNTUVPutHyhcRFjbLGJLVDhOcckSOB0O/GPfbuj18fB4XKirPSkeK1KpxFOrXxKP5XQ4sOF/XhFT0UQ0NMmcjI4hJbQqMhcsxuS770PJaxvgctix5+er+3xVdiE4mpoaxBaPkCK8FoNtodq09LGQKeRi6xe43KpsbDgDwNtSxAhv61oQpdYgZ8JUXLBaUH+6TnzNkcOfAfBeDJjNzTCZGjFt+my43C7YbTaMn5ALmUKOD7dsDGm/KxH1D86CHCSqt29G9fbNYqAclTOlzwOk0EryDSDXymJphV4fD5Va3asA2ZcpVr3eILZ+L2/zT51KGT8hFzpdHM6eOYV2mxUpqWnACG9rUmgl7t27C4A3WAqtUSIa3hggJdjNLdAkpyIhZ3K/pjulKPXeEaGOgD4/wDt4KPY64zWPghT6xIRAKbQehRGvPfGPfbthNGbi1sU/6FUrsi9TrFqtDg6nDXabTdymidHC43KjrvakuE0ml4v9pMLo39bWFr/XOBw21J+u8wuWQupVaI0K/be5Uwq61YIURrEORCqdiHpPpo1NAOCCnTcLEJU/9wQWrl2Pqfc8gKn3PAAgeJrH1fhOAQEAxMWjdOseXHS78fk7b6J6+2bJqSW+z/sSBvT0RlXVQaSlZ6CwaAEKixYAACoryjE2Y1yPj2UyNeLdjeuwdFmZXz9kqKZ6+AYv32BtNGb5BU3hHIzPycX4nFw4HQ588ME7mDd/kTiC1WjMEluJmhgtcAkwm5uRkpoGpVItpmdNpkZ8tGMLFhTf4dcH2dU5cJhbcNHtRqQ2NiQXX0TUMyMyxs28NNCFxmgT0GZpGuhiiUJu4dr10CSnSl4EEdHgwpuVEw2QzAWLoUlOhfXsaQZHoiGAfZBE/cw3ld7TVD0RhQ5TrERERBKYYiUiIpLAAElERCSBAZKIiEgCAyQREZEEBkgiIiIJDJBEREQSGCCJiIgkMED2UEzyGCx+630sXLu+W/vnlpahdOseLH7rfcQkj+nn2hERUV8JUzBEBlm4dj0DGhHRN5xMFaMHuJJHvxEWRCYioqElrAMKKOThoa4HERHRoCIDgIsXL4a6HiEntTZjyWsbxH8H3mTabm7xW/MxcBFcYXFcQVeLHMckj8FNTz0PdVy8uO1aF9SVWgB5V/l2VFaUX3EfIHgNw/yCInHNSAA4e+YUNrz9ao/q0x8C6wUATocD725cB5OpEQCQnT0JC4rvgFwmF/eRWqOxuGQJxufkio+l3qPwuQCAPT9fjcZD+/v8PRHR4CSLcFvR5gl1NUKv8dB+vHfXzQC8fZAKdfQVg1Ty1Hyc/7IGG0pmiT+iM1c+KQZBIbUqBMCuzFz5JABg6wOlvVpAN0qtwbz5i/wCRXHJEsyYNRfWNguqqg6KwdFsbhYDQXHJEmRk5fgFj+KSJTAaM/GrX/4CJlMjotQaLCstQ+nyFSENkqXLV8CQkIQPt2wU61q6fAWUKpW4ILIQ9HwvDIT3YzY3A4D4fgDg5RfXoN1mFc9NcckSbNu6KQTvjogGG5ndbseAL+cxDPi2CBsP7YfN1ASFOhoxyWO6HehiksdAoY6Gy3ah16vLt9usQcGrrvYEMrJyoInRAgD0+njIFHLU1Bzvch+DIRFGYyb27t0lBtp2mxVHDn+GvLxCGAyJ4varCWxF++ppKzm/oAiGhCS/QB6l1kCpUsFht6PdZkV29iRkZOUEtZq1Wh0cTpsYRAtv8rZAN25Yh3abFQCQlj4WkUolzGaTX7m+F05E9M0iU8QkQGFvhq2TadaB1nb2FE5/uhvZJbejdOuea06tCqTSj77M5mZ4XG4YjVliAElLz4DH5UZd7UkAl4NoYdGCoGO5PW7o9fHdDpB9OUDJaMzCBasF9afrxG0qtRrKSDUaG85IvhfAG/D1+njU1FSj3WZFlFqDxKTR0Oni8OBDa/zem2/LlIhIZre7EKNSQ9ZpBTOtA08IIpkLFmPy3feh5LUNcDnsPe7vEoLj0SMHxBSh0BcnsNtscDhtSB49Bk+tfgnA5b65wKAX2AoLJaGl2NhwRmzxAcC06bMhU8hRV3sCgLelaDY3+72XwJZhSmoaojXaQfX+iGhwkgEA3B6w/Rha1ds3o3r7ZjFQjsqZ0qMAqdcb4HQ48I99u7vcZ/yEXCgj1WLfohShlanXG3r8HgL1ZYo1kJAK9rjcYt+i1D55eYVwe9ywtlmuqRwi+uaSxagU6LhgZj+kD7u5BZrkVCTkTO5132BPKfVxAACHuSXouYVr1yP2OqPkiFiz2YSMrBwxBSo1khMAZAr5FdOkJlMjamqqMT4nF2azqVetrL6eA5qYNBpRag1UarU42Eivj/fbR6+Ph8GQCLvNhlsX/wCRSiWcDocYROtP1+GC1YKcCVNx9PABvxapZJn/GoAVLlfg83feRPX2zX32fohocJO1n29iajVA+XNPYOHa9Zh6zwOYes8DAIKneVyN7xQQAEBcPEq37sFFt1v8oZWaWuL7vC9hQE9XKivKYTRm4XuLluF7i5bB7XHj73s+Rl5eYZf7+PJNzQr/D+yHDNVUj3abFX/b/TEWFN8h9hvuKt8Ovd7gN4L1ox1bsHRZGe798cPiPkZjFgD4DTj6YPNvsHRZmV8fpLB/4AWB3WyGy2aDOi4eo8ZPYoAk+gYZkTFu5oA3HmO0CWizNA10sd94wnQH36kgwvbAqR7DgTB1o6amuldTN4RUcU8vkohoaOOdWL9BtFpdl9uv1Jc3FGRnT8LDjz6L7OxJ4rZ58xcBwBX7Za8mJnkMUm+cDZfDjpM7Pux1PYlo6GAL8htEmCCv08X5bW9tbfGbEzhUBd4lKPAOOz0l9Pn2dkAREQ1NDJBEREQSmGIlIiKSwABJREQkgQGSiIhIAgMkERGRBAZIIiIiCQyQREREEhggiYiIJMhCXYG+MCehAPdnLAUAvH7iXexsqghxjYiIaKiTaaNUaGu3D+nVPHY2VWBnUwXmJBTg3utvg7nzPA61Voe6WkRENIQNqxTr3q8O4ZyjBZN12aGuChERDXHDKkASERH1FQZIIiIiCQyQREREEoZVgLS57TjW9gVmxE+BIVIf6uoQEdEQNiymefha/8X7+Ly1Cq9O+ynOOVrw5KGXYHPbQ10tIiIaYoZdgFw98QHEyjX4YeXjDIxERHTNwiDXICY2AdooFUaEuja9pJarECvX4FjbFwyORETUKzK4rUP+RgFERER9bVgN0iEiIuorMks7U5FERESBhlUL0hidglHKONTbmkJdFSIiGuKGxShW39U8/nR2F1fzICKiXhuRMW7mgI/PidEmoM3CVh4REQ1ewyrFSkRE1FcYIImIiCQwQBIREUlggCQiIpLAAElERCSBAZKIiEgCAyQREZEEBkgiIiIJYdrYBEQOi/vpEBER9R2Z5TzvaENERBSIKVYiIiIJDJBEREQSwtj/SEREFCwsIjoB6pHhoa4HERHRoBLW3gHIFREYEeqaEBERDSLePki5DGxDEhERXRYWFg6gowOeUNeEiIhoEAlTyV2wd3SGuh5ERESDisxy3hzqOhAREQ06nAdJREQkgQGSiIhIAgMkERGRBAZIIiIiCQyQREREEhggiYiIJDBAEhERSWCAJCIiksAASUREJIEBkoiISAIDJBERkQQGyH6Wmb8Edz61Bwt+8i4i1fqr7r964gNYPfGBfqtPlFqDsvsfR+nyFf1WBvW/N1akoPrX47BlTXq/lqOWq/DK1P/EnISCfi2nv6QnROCTF8ai+tfj8Mhto7r1mi1r0vHJC2ORnhBxzeWunvgAthW9iXdm/ByGyKt/72lwCtPGJkA9kqtBdldKVhEWPfwnpGQVBW3//uN/QWb+kms+9j3X34br1KPxy5O/7VUdi0uWoOz+xxGl1gQ9p1KroYxUw2Jp7VUZ3ZWdPQn/8eQLQfXJLyjCfzz5ArKzJw1IPUJt2U16HP5ldrd/pAcLm9uO7Q27cX/G0iEbJAea8D3+8af/ibv//ghMTi4IMVTJLOebQl2HYa26chOqKzdddb85CQX4TkIBfnbszV5/obRaHRx2O9pt1qDn9Pp4yBRymM2mXpXRXWnpGZDL5IjWaJGSmoaqqoP/qocBF6wW1J+uG5B6DDc/ebV+wMra2VSBFHUClqYV45jl5JD6wa9t6sBNj54csPLUchXGxVyPvzfvH1LniaQxxToIGCL1WJpWjL80VeBQa3XvjmVIhF4f32ULUROjhcflRl3twPxoaLU6tLa2wONyQxOj9dveVRCnwed3p/4XbZ1W/HjsnaGuCtGAkYW6An0lr/hJpI7/jvjY4+nEZ398HvXHy8VtmflLkFP4I/Fxp+MC/rppFSymGkSq9Si6+2UAQPk7D8JpM/sde1T6dPx106pu1yewrK/OHsMnG+6X3HecdiwAYPvZXV0eL0qtwbLSMuh0ceK2XeXbUVnhfX/FJUswPidXfG58Tq742O1xY/u236Gq6iD0egMcThsSk1JQ+n/+HXKZPOhYgtLlK5A8eoz4+OiRA9i29XJruLhkCRKTRuODzb/BrYt/INbt7JlT2PD2q4hSa6BUqfBVSzO+FQcYjVmorCgXtzc2nLlieb7Hyi8oQs6EqTh54hjyC4rgdDiwY8dmzJ+/GJFKpV/9DYZELF1WhkilMuj9+8otLUN2ye04/2UN/rjqni7P/dW8sSIF354QLT52uS/hxT+YsPETc9Bzy+fpsXyet0+q3fk1Vv13PSqrbMjPVmPtv6Vg857zSDUoxNf47iNV1l8PXwhqTQr9kvuq7WJZvnUSLLtJj4e+b4BCPsLv9YFlApdTrfdefxsm6jIlL+R6ez4fuW0UlhTpuqxn5fF28b0K5ysqMkzy/aUnRODNB1ORoJd3+f59yxXOk6DJ7O5x/Wn4kWmjVGhrt+NSqGvSC5n5S5CUOQuffvBffgHRV0pWEeJSJuK3z8wCADEg5i9aLQbELw/vQNbMuxGXkiMeJ1Kthy4pA+dq98FiqkG0bnS36iSkVn0Db1dujJ+Itk4rbB6n5PPZ2ZOwoPgOmJoasO71lQC8wWnGrLmwtllQVXUQ27Zuwratm5BfUIQZs+ZKBgTA23JTKtWYMWMONvzPKzCZGlG6fAVyJkzF0cMH0G6zigHGbG7GM0+v9KuD2WwSA5FWqwMALF1Whr17d6GyolwsPzt7EszmZigj1Whq+gwuVycSk0YjSq1BSmoaojVaHDn8GYDLAc3htOHlF9f41UFoCev1BiiVaowfPxm7yrdjxqy5uKX4Tuz8eCumTZ8Fvd4AwNu3WVi0IOjiYd78RTCbm2EyNXbr79ddj9w2CvlZUfjZe+ckf3yFH3ThR35TeSt+/v65Lo+3fJ4eTWY3Fv5nDQDgzQdTsWqxAZVVtX7HEwJEVzJGR0KjlPkd5+7v6LG32obapg7JoLNlTTqSvjUyKDgKjllOwnmxE/qRsd05NT32aXU7Fs+KRUlBjN+5nJ6pQqfnEt7b5f0sSNX9jRUpePyuUTDEyvHz98/5pVaFwCvljRUpQX+/LWvSoVEOm7YD9YLMDg1iojCkg6RGn4qLrk5caD3T5T71x8v9gqfTZkZrwwmMSp+OCLUWTpsZ5+o+w9jpd8A45XvivmNy5iIyOg5NtW+Lrw2Tj8SNt/4UN976017XXS1XIVauwbG2L2Bz24Oej1JrMHP2XJiaGrDh7VfF7f/YtxtGYybS0jP8AuGV+vaE9KtMLsdHf97SZbAQgolveWnpGQAAa5tFrJdSpYJOFyfZ+vTWJR4Ycfk1GVk5SElNE1OtwvZ58xfB4bRh44Z1Yso1sK9Uq9WJ9dbEaCGXyXH0yAE0NtRDGamG2WyCwZCIvLxCv/pEqTVITBoNh9MGu83/R//AhnU4sGGd5DnorlSDAp2eS/jS1NGr4whOnHFi0Zpa8bHV4YFGKUN6QgRqm7pfRpPZjftePi2+5p8NTuTeoEZ8rAy1TYAh1tuy2ld9+TO3r9qOJUURuM4QIRkgbR4n2jqtuDF+InY2VQQ939vzWVllw4F/2pB7gxr52WpUVtmQnhCBG5Ii0fBVp1inkoIYmK0evLS5WXztS5ubcUNSJKZnqrpdXn62Grk3qFF5vF3y4uZaGKNToB0Zjc9bq/rkeBRaMpfTDlV0JORhdri+DnV1rs3Jf7yPUenTMe/e9ZKpVcFNpa/jW8nj/LZ1Oi6I/7aYanCudh9GpU+H1mCExVSDBGMeLOe+8Dve1+5OfBpQRkpWEaYufKzHdVfLIhEzMni0qXjc1DQolWr8bffH3TpedwbonDh+RAyqQqATXiME0UilEk+tfkl8rdPhEFucwOXRsGfPnPILjpUV5X4tN1wCzOZmmM3NyMsrhCZG6xfEhfJqaqr96uwbRIU6mpoaUFV1EMUlS+B0OPCPfbuh18fD43GhrvYk0tLHIlKpRGHRAhQWLRCPJaRp+8N7u1qRe4Mav1o15oppvO4ynfdP7fkGy74klDM9UyXWd3qmCmarB3urg4PjQNlXbUd+VhRuzIxCZZUNeZlqRKnC8c5fLqdONUoZ/tng9LtgqG3qwD8bnLghKbLbFxPXGSLEMntroi4Tj4+7D+ccLSjb97TkxS4NPTJ87YEbKoSHARiiAdJiqsEHL94ipjOF1t2RXW+JI0hvKn0d2lHX+6Vhhb5FX021+5CUOQuj0qYCANQaAw598t/9VnfhqrwraekZYpDxJbTO6mpPiNt8g40UIej4vkYIdEJ/YFr6WMgUcny4ZaNkita3fJlCjpqa413uo9Xq/FpuDqcNRmOW99//CsgpqWlB7yNKrUHOhKliEBXqKKRktVqdmC6dNn02XG4X7DbvsVtbW/xaov2tssqGaT85LvZ5PX7XKDx+1yi8/ZH5iqnUUPvS1IFOzyV8e0I0qn/tvWgU+h6vFlwa7c1XfL43Nn5iRklBjNgSnJ6pQrv9YkiDdnccaq3GbbtXYKIuE7/O/xl+9cX7kq1sGlpkCJNBDteQbT36ctrM2P7GUjFQJhjzxH7ACFVMUEtQSv3xchinfA8JxjwAgM1quupresPmtuO824pxMddDLVd1+8ozd0oBHA6bXyr1alM49HoDPC63X7CVCrTdEZgmDeQ7EEcIVo0NZzBmjHcAyalTXbeMxk/IhU4Xh7NnTvkFUWubRbwI2LvXO6BpsIyGFfq8hEDZk1SZ+gE7AAAUg0lEQVRfKNxVqEO7/SKWPFvX7dStkO2ot/Xv1LB91XYsnhWLW/K0uCEpEh8fsIp1rG3qgNXhCWopCqlYq8PTo1T0SNkIMd0sHKc3/Y81F+pxztGCFHXCNR+DBo+wyGgV0NE+LAKkIEKthSJCA7vFewXvtJnRYW9DhCpGvJtN4KhXX001e/Gt5HHIKfwRmmr29nt9P20+hFHKOBijgwdd1NWegEwhx7Tps8VtpctXwJCQhL/t/tgvMJjNzfC43OKAlUC+LS9BYAu1rvYkPC43cqdceVK4VLD1JbT6fIN1Xe0JRChViIqO8dsuk8vFPs78giLk5RWitbVFfF4ToxUvBnz7NYUgLAzkqak5Dp0uDuMnXB7NeyW5pWUo3boHC9eu79b+3REfK0OUKjwoVSq02AZT4IxShSM+tvvBYJx2LCLDR8LceV7y+b46n59WtwMASvJjMFIxQnws2FdtR4JejpWL48VtKxfHQ6+RYWtFW7fL2Vttg9nqwdxcDdITIoJGvhLJwu3NsHReDHU9ekWqb/H00b9g77Znxceff/QKvr1kLUpWbgEAtJ8/i+rKTUibeEvQ8U4d+RjXTZgv/vtaBAbgqNhk3PnUHsk+UmF04MLRRUHD56uqDkITo0Vh0QJx2kZrawveeOXZoFaTydSIvXt3+e0bOOUicGpFYBrUZGrERzu2YEHxHX59kL5TJYSBL1caFRo4QAe4HMCBy9urqg4iLT1DnJbidDjwwQfvYN78RWLgMxqzxFaiJkYrBnShf1Zo/VZWlEOvNwT1QfZn2nXLmnRkjI702yY19aKyyobXP2zGQ983BKU0pQbEdLc8IUXa02O9tLkZbz4YiV+tGhP0nFR6WC1XYUHSbBy31vR6ru7VCIN1vj0hGn89fCHoPf38/XMwnXcHncufvHZa3DdwGggAMf0tDISqberA6t80YO2/peCP/9cIwPveUw0K3JDk/zelb6YRGeNmDvjg1RhtAtosg/cOPkKKtrXhhF+Q7U9zEgpw7/W34WfH3uz3HyAiYSqD70hXYbvUVI97rr8NM+Kn4LEDz/MOMVeglqvw7MSVONb2BdZ/8X6oq0O9xDvpSMhfvAYAcLj8lwNW5s6mChy31uDxcfdhoi5zwMqlb56u+tmE7e32i2g+7xG3z0kowC3JhXi3bhuD41UIYwpmxE/hTcqHAbYg/0VrMOLbS9ZipDIa7efPBt1NZ6AIK3k8fei1AS+bvjmkUpBA8DxMoUW0vWE3R2V2k3DOUqOS0OZqZ6t7CGOAJCIiksAUKxERkQQGSCIiIgkMkERERBIYIImIiCQwQBIREUlggCQiIpLAAElERCSBy2YPE/kFRQO2BiLgf2MFwLuu5l83rYLFVNNvZfq6NFKF9pLnIT+zH5F73wEAxCSPwU1PPQ91XDzOf1mDP666p9flTJ+ThLvuz4FMHoaPfl+DP75zstfHvBrhfVhO16L8uSe63C+3tAzZJbcDAKq2/r7Xiz93pbhkCYzGTLy7cV2X994dznw/V7aWZnzyzGNoO3uqy32u9tmzfXc1ws+fFj+3NHiFaWMToI3VQ8G25JBWWVGOZ55eiZdfXOO3EkZ/Edbg/O0zs3D66F/6vbxA9pseBgBEHNwsbms7ewqbf3Qbdj79MNSGBCx+633EJPvfjHv6nCS8uu27+MGqCZLbV71wY/9X/ipUej0UajWsTQ1d7pO5YDEyvnsrqrb+HhtKZvUqOOYXFOHhR56FwZAo+XzgDe37U5Rag7L7H8d/PPkCsrMnidsNhkQ8/Miz3kW4B5jwudr6QCkAYObKJ7vc50qfPUHE539Ax+Tb4cy7u1/rTb0na7O7EKNy4+thtNwVDW/OvLvhGZWF6N+VYURn8PqZjYf24727bu6TsvbtbMC+nV0Hqr6UuWAxJt99H8Ll3uWWsktux/XfWYA9P1+NxkP7/fYdNX4SnJbzqC3f0ety9XpDlwFQWAVmoNbcTElNQ7RGC7nMuwSasGj3ta5b2pfazp7C6U934/rvLEDixClBfxOge589makaqo+fh33uY5Cf2g+ZiYsTDFayCJUCbrsFnqvvSxRyHkMmOibfDtXHzyMsBPfK7S9CurRq6+/hMLdg/OKl+Psrz0r+CPclYemyrgKgsK7nkcOf9Ws9BJoYLTwuNy5YLdBqdX7bfdctHeoUNXvgun42HLPKELX1MckLPQo9WQTsaB/i60H2tezsSVhQfAfkMu+VvFR/XnHJEnHNRal9SpevAOBdxFfoG/RdU1EQpdZgWWkZdLo4cZvU+oVXK68nSpevQPLoy+mfXeXbUVlRfoVXXDth6bCo2GRx25Fdb6G6cpPffl0tYP3V2WP4ZMP94mP3mCkI/+pLyM8c6Jf6CoS+x4h/rXrR4fDgvdeP9FtrMmH8JNhamlFbvgPpRfPhcblgN/fuAiDw73z0yAFs2+o974F91jod/Nb/FD4TQsuto8OJsvsfFz+n1/KdEBbDfnfjOsybv0ism+/nXWjNftXSjJSUNBgMiTCZGiVbuYHvAQCcDgfe3bgOen08bppzC/bvr8CMWXMBADs/3opp02dBp4vzOxdXO1f9JeLzP6B98S/gHp0LRc2eoOcTJ07BrEeeBgDJLAL1Pxk6Oth69CF86QJ/TPILisQgUrp8BfT6ePzql7+AydQIgyERS5eVoez+x/0CW/LoMVCqVHj5Re/yWctKyzBz9lzUn64T91n0fW8/xMsvrukyhdXd8q5GCMYOux3PPL0SwOWLAQB9HiSFgTwXWuux/Y2lAIDM/CXIKfwRNPpUca3NvOInkZQ5C59+8F+oP17u9zrf4HhppAru0VMQZvuq36+4fVOrq164Eak3aPu1PLu5BbHXGZFeNB+ahCS4bBeCBoJ0l/D5cDht4udK+FybzSZUVpSL/wl//7/v+Vjy76+J0UIml+Pbhd/F3k93obKiHPkFRZgxay6ysyeJC2gvKy0DcPlzLNShuGSJ+D3S6w3weFy44857cOpULTa8/apY/vgJuaisKPf2d9rtOFF9GCmpadDr42G32YJauaXLV8CQkIQPt2wULzhLl6+AUqWC3WZDWvpYyOQK5N1YiL/v+Rh5eYW4+bvfx67y7TAas8TWqVBPs7k56DshnKv+Em6pR/hXX+KiPhWQCJAUemH2js5Q12HQMBgSkZdXiLNnTvldPQo/JoD3y2NISMLevbvEEX0mUyP27t2FaI0WKalp4ut8r4zbbVY0NpyBMlINlVoNoHv9Oz0p72rGT8iFMlKNj3ZsEbdVVR2EqakBRmNWt4/TXWOn3QYA+PyjV8Rt1ZWb8NXZY9AlZSBS7V0vT6UdBeeFFrTUHwHgHQB0obUeEaoYcR8AuCSPxNdRcVB8sbvXdSuYn4K3dhaL//3w0cliazEUyp97Aue/rEF2ye1Inpp/xX1jksdAm5oOy+laySA6b/4iOJw2v4uno4cPoLW1JejvLKQ062qlR+cajVmQy+So+aK6y2BReJO3FedbXlr6WEQqlTCbTeJ+Wq0OUdExOHWqVrJ1JnwfLJZWbyr1EpCWniGmeS2WVgDeC1ZDQpJfNibwu6TXGxAZqcTeT3fB2maBTCHH2TOncPTwAbEM4VyZzc1+Ld209AwAgLXNElTHc0e8rbix878neS56YkSnHWG2r+AePQWXRqqCnhf6M9+762a2HkNE5uLgHJFeHw+ZQo6amuNd7tPVD0pd7Unk5RV6+0q6qd1mxZHDn6GwaAGeWv2SZGq1L8vT6w2IVCpx748fDnqutbUFUWpNnw7EUGlH4UJrfdDUj6aavRg7/Q5EqLVw2sywW85BO+p6xKXkiC3IaF0KztXu81uT82t1HC5FqPukbhU76vGbtYfFx0JKNZT+uOoecbpA7HVGlG7d4zetQHguUhuLz995E9XbNwcdw2BIhF4fj717d3Xrb9mdATqtrS3Y9cl2v9d4XG6Yzc1iH6ZOF4cHH1oj7uP2uP1ad10dq6rqoLhPdvYkRGu0OHL4M5hMjTCbm6HV6oIG6BiNWbhgtaD+dJ14HCGINjacAeANxq2tLTh6+ADGT/CmfQ/sr4BKrYZCrkBd7QnxXEUqlX7pZafDgQ3/84rklBYhaC1cux6lW/f06/QaCj3OgwyxwFTXgw+tEftR+mPOWX8e+1pZzaeRKvsObrz1p7jx1p8C8PY9CilYQZitBSM6+n+qwWAgDNaZfPd9mLzsXpQ/94Q4lUAIlOmF84Lm26Wlj4VMIQ9q/UgNtunuAJ2ammq/532nfQijTq/Wj93VsXwJF3tC3S2WVhiNmUgaPUYcoCME2saGM37HmTZ9NmQKOepqTwTto9cbxIA6fkIuZDIFzOZm8Vz5BvKrEUYan/jfD/pkni2AAekyoGvD2Y8+zOZmeFxu6PWGLvcR0jVp6WP9tnf1w9RdVVUH8f+efRQfbtnod/y+LM9sNkGmkHuvyAeA3XIO0boUaA1Gv+0Jxjy4OqzosFkQqdbjugnzcfroX/DbZ2aJ//n2PQpGuJ0Ia2+B6/rZA1L/UFDp9ZApFHCYW9B05HM4Leeh0sf57dN29hQsp2uhUEd3Odcu0LTp3nPmm4kITF0GEjIqvmnSrgLU1UgdK3gfg1/LsK72BDACGJ085orzMA2GRBiNmWKrVnhfZrNJvAjwDZa9mdOp1Mfhotslplp749JIFb5Wfwvh50/3+ljUPxggfZhMjaipqcb4nFzkFxSJ24VBOgBQf7oOF6wW5OUVihOrhb5LU1NDt69EuxJ4Fd2X5R09fAAXrBbMm7+oy0nhvoQ00sK166/hnQBNtfsQrhiJyfP+XdyWmb8E30oehy8P7/BLn6q0o656vBGddsjP7IdnVBa+9umbHAyeXl+It3YW9/pGA5rEFACAtbEe6UXzoY6LR9PR7v+N62pPwuNyI3dKgbhNGF3q248NAHabDQ6nzW86hV9dJNL7QotRCHTC5zNnwlREqTVdv6+Az7UUYYCOEHjrT9fB4bAh3pAY1MpNTBqNKLXGb5CNQK+Ph8fjQl3tSb9gGViG1LkaSBe1Kbj4resQbpYOkIkTp+Cu9/6MZX/4BJkLFg9w7QhgijXItq2bYDabUFi0QBxC7jtcvd1mxbrXf4bS5Sv8+vKuZVi48OWOVCrFbYFTQbpbXuAQe2HYvu/x2m1WbNywDstKy4L6IQNTZDHJY6BQR3dZ95SsIkxd+BhkspHitnn3egPp6aN/wd5tz6L+eDkutJ7Bt5esxZ1PeUfpeTyd4mhVAHDazDi2+21MXfiYuI9A6vZ18lP70TH5dnSO+26/3qpr4d1jMe92I2Tyy9eQP3x0Mn746GScPPQV1j76qd/+1vMdGJUShdQbtJg+J6nH00EWrl2P2Osut7TnrP4FLrrd+Gz9a5J9jV0xmRrx0Y4tWFB8h9iv5nQ4xBHQvtptVvxt98d++0pNufBtbQUGunabFR9s/g2WLivz64ME/D9TUv2Gvnxbpr71c9jt0OkgtnJ96yyUt6t8O/R6gziCddr02XC5XWIKGCO89fXtn+3qXAHS07H6Q8fk719xypLdbIbLZoM6Lh6jxk/q0eeA+saIjHEzLw10oTHaBLRZmga6WBqEhCkd52r3+fU5djXVA/DeSacz67uI/l3ZoLlZgDDIx+nw4NfPf45/Hr62ehU98Ry0qemS9/u8lv2ob+WWlnV5d6OecBlnwT73MURtfviKd9IRbiBx9rPKK96Xl/oHU6wUUtG60QhXjOxyu91yLui5iIObEdbeggt3rBs0qdYb54xGhFKG4/ubrzk4AoBKH9etOZDWpgao4+KRXjT/msuinksYPwkum61XN3HwGDJhn/sYIj7//RWDY0zyGKTeOBsuhx0nd3x4zeXRtWMLkkJOuHlAIKk77gikVvMIBSEVC2DAVvsQFD3xnDhnktMN+o/vSh0uh73XrcfurOYhpNy7Wj2EBgYDJBERkQSmWImIiCQwQBIREUlggCQiIpLAAElERCSBAZKIiEgCAyQREZEEBkgiIiIJw+JerHMSCnB/hnfF+tdPvIudTRUhrhEREQ11Mm2UCm3tdgz43QL60M6mCuxsqsCchALce/1tMHeex6HWrm/hREREdDVhdmgQE6XCiFDXpA/s/eoQzjlaMFmXHeqqEBHREBfmdrkAuQzhoa4JERHRIBIWHq4A3B5cDHVNiIiIBpGwqAigwzm0+yCJiIj6Wlj7+SY4PaGuRt+wue041vYFZsRPgSFycKwTSEREQ1N4ekbeGtnXDrguDlwbMiIyCh0d7f1y7IOtx1Fvb8Rzkx5CQdxkVLR8DtfX7n4pi4iIhi9Zm92FGJUWCrcZrq9DXZ3eWz3xAcTKNfhh5eOwue2hrg4REQ1RYZcuDp/WlVquQqxcg2NtXzA4EhFRr4QpIlWA2wn3MGg9EhER9ZUwFaxD/k46REREfU1maWcqkoiIKNCwWs3DGJ2CUco41NuaQl0VIiIa4obdah5/OruLq3kQEVGvjcgYN3PAux9jtAlos7CVR0REg9ewSrESERH1FQZIIiIiCSEJkEyvEhHRYMcWJBERkQQGSCIiIgkMkERERBIYIImIiCSE7EYBy25uxENLTkEh/xp/PaDDT17IClVViIiIgoSPTkxZ4wnBSh5Ha6Lx5gejccEuw+1zziFK5cGnR7UDXxEiIiIJYRHRCYgM4Q3nNv45EXWNSkwf1xa6ShAREQUIa+8AIiJVGBHqmhAREQ0iYRcvugC5DOGhrgkREdEgEnbpojvUdSAiIhp0wiKjVaGuA/Ydi0FaogPLbm4MdVWIiIgAACPGTbzlUlQ00H7eCk8IK5KfY8HalScAAKteykDlEY5oJSKi0JFdDJcDbicuhrASbzx6HLmZVgZGIiIaNMIiVAp0OO0Y8FWTfRj0nWhoiWBwJCKiQSMsoqMVzlDmVomIiAahMIujM9R1ICIiGnR4s3IiIiIJIQ+Q+TkWJMV1wGQeGeqqEBERiQbFah4nTqu5mgcREQ0qIzLGzQzlAFYiIqJBKeQpViIiosGIAZKIiEjC/weCZc9BqF9YOwAAAABJRU5ErkJggg==;" vertex="1" parent="WIyWlLk6GJQsqaUBKTNV-1">
          <mxGeometry x="380" y="270" width="237.83" height="230" as="geometry" />
        </mxCell>
        <mxCell id="ogPEok4I9FEMf835OHZS-1" value="&lt;p style=&quot;margin:0px;margin-top:4px;text-align:center;&quot;&gt;&lt;i&gt;&amp;lt;&amp;lt;Interface&amp;gt;&amp;gt;&lt;/i&gt;&lt;br&gt;&lt;b&gt;IPerson&lt;/b&gt;&lt;/p&gt;&lt;hr size=&quot;1&quot;&gt;&lt;p style=&quot;margin:0px;margin-left:4px;&quot;&gt;+ name: string&lt;br style=&quot;padding: 0px; margin: 0px;&quot;&gt;+ age: number&lt;br style=&quot;padding: 0px; margin: 0px;&quot;&gt;+ sayHi(otherName:string):void&lt;br&gt;&lt;/p&gt;&lt;p style=&quot;margin:0px;margin-left:4px;&quot;&gt;&lt;br&gt;&lt;/p&gt;" style="verticalAlign=top;align=left;overflow=fill;fontSize=12;fontFamily=Helvetica;html=1;" vertex="1" parent="WIyWlLk6GJQsqaUBKTNV-1">
          <mxGeometry x="120" y="270" width="200" height="99" as="geometry" />
        </mxCell>
      </root>
    </mxGraphModel>
  </diagram>
</mxfile>
